<svg xmlns="http://www.w3.org/2000/svg" xmlns:xlink="http://www.w3.org/1999/xlink" width="512" height="512" viewBox="0 0 512 512">
  <defs>
    <style>
      .cls-1 {
        fill: url(#linear-gradient);
      }

      .cls-2 {
        fill: #fdf8ff;
        fill-rule: evenodd;
      }
    </style>
    <linearGradient id="linear-gradient" x1="506" y1="506" x2="6" y2="6" gradientUnits="userSpaceOnUse">
      <stop offset="0" stop-color="#5e1ad3"/>
      <stop offset="1" stop-color="#c233ff"/>
    </linearGradient>
  </defs>
  <rect class="cls-1" x="6" y="6" width="500" height="500" rx="125" ry="125"/>
  <path class="cls-2" d="M384.316,163.352a35.5,35.5,0,0,1,0,50.2L249.259,348.614a35.5,35.5,0,0,1-50.2-50.2L334.111,163.352A35.5,35.5,0,0,1,384.316,163.352Z"/>
  <path id="Rectangle_2_copy" data-name="Rectangle 2 copy" class="cls-2" d="M249.259,348.614a35.5,35.5,0,0,1-50.2,0L127.636,277.2a35.5,35.5,0,1,1,50.205-50.205l71.418,71.418A35.5,35.5,0,0,1,249.259,348.614Z"/>
</svg>
